{"title":"The Water Diviner(2014)MPEG-4[DaScubaDude]","uid":14603934,"size":1107259372,"categoryP":"video","categoryS":"movies","magnet":"?xt=urn:btih:83034b909debefa5c239627f73f5435c76f393f6&amp;dn=The+Water+Diviner%282014%29MPEG-4%5BDaScubaDude%5D&amp;tr=udp%3A%2F%2Ftracker.leechers-paradise.org%3A6969&amp;tr=udp%3A%2F%2Fzer0day.ch%3A1337&amp;tr=udp%3A%2F%2Fopen.demonii.com%3A1337&amp;tr=udp%3A%2F%2Ftracker.coppersurfer.tk%3A6969&amp;tr=udp%3A%2F%2Fexodus.desync.com%3A6969","seeders":0,"leechers":0,"uploader":"dascuba","files":1,"time":1463072759,"description":"The Water Diviner (2014)\r\nR | 1h 51min | Drama, War | 26 December 2014 (Australia)\r\nAn Australian man travels to Turkey after the Battle of Gallipoli to try and locate his three missing sons.\r\nDirector: Russell Crowe\r\nWriters: Andrew Knight, Andrew Anastasios\r\nStars: Russell Crowe, Olga Kurylenko, Jai Courtney |\r\n\r\nGeneral\r\nComplete name                            : WaterDivinerTHE_WATER_DIVINER_Title1.mp4\r\nFormat                                   : MPEG-4\r\nFormat profile                           : Base Media\r\nCodec ID                                 : isom (isom/iso2/avc1/mp41)\r\nFile size                                : 1.03 GiB\r\nDuration                                 : 1h 51mn\r\nOverall bit rate                         : 1 326 Kbps\r\nMovie name                               : THE_WATER_DIVINER\r\nGenre                                    : Drama\r\nWriting application                      : Lavf54.6.100\r\n\r\nVideo\r\nID                                       : 1\r\nFormat                                   : AVC\r\nFormat/Info                              : Advanced Video Codec\r\nFormat profile                           :   \r\nFormat settings, CABAC                   : No\r\nFormat settings, ReFrames                : 6 frames\r\nCodec ID                                 : avc1\r\nCodec ID/Info                            : Advanced Video Coding\r\nDuration                                 : 1h 51mn\r\nBit rate                                 : 1 191 Kbps\r\nWidth                                    : 720 pixels\r\nHeight                                   : 404 pixels\r\nDisplay aspect ratio                     : 16:9\r\nFrame rate mode                          : Constant\r\nFrame rate                               : 29.970 (30000/1001) fps\r\nColor space                              : YUV\r\nChroma subsampling                       : 4:2:0\r\nBit depth                                : 8 bits\r\nScan type                                : Progressive\r\nBits/(Pixel*Frame)                       : 0.137\r\nStream size                              : 949 MiB (90%)\r\n\r\nAudio\r\nID                                       : 2\r\nFormat                                   : AAC\r\nFormat/Info                              : Advanced Audio Codec\r\nFormat profile                           : LC\r\nCodec ID                                 : 40\r\nDuration                                 : 1h 51mn\r\nBit rate mode                            : Constant\r\nBit rate                                 : 128 Kbps\r\nChannel(s)                               : 2 channels\r\nChannel positions                        : Front: L R\r\nSampling rate                            : 44.1 KHz\r\nFrame rate                               : 43.066 fps (1024 spf)\r\nCompression mode                         : Lossy\r\nStream size                              : 102 MiB (10%)\r\nDefault                                  : Yes\r\nAlternate group                          : 1","torrent":{"xt":"urn:btih:83034b909debefa5c239627f73f5435c76f393f6","amp;dn":"The+Water+Diviner%282014%29MPEG-4%5BDaScubaDude%5D","amp;tr":["udp%3A%2F%2Ftracker.leechers-paradise.org%3A6969","udp%3A%2F%2Fzer0day.ch%3A1337","udp%3A%2F%2Fopen.demonii.com%3A1337","udp%3A%2F%2Ftracker.coppersurfer.tk%3A6969","udp%3A%2F%2Fexodus.desync.com%3A6969"],"infoHash":"83034b909debefa5c239627f73f5435c76f393f6","infoHashBuffer":{"type":"Buffer","data":[131,3,75,144,157,235,239,165,194,57,98,127,115,245,67,92,118,243,147,246]},"announce":[],"urlList":[]}}